<?xml version="1.0" standalone="no"?><!DOCTYPE svg PUBLIC "-//W3C//DTD SVG 1.1//EN" "http://www.w3.org/Graphics/SVG/1.1/DTD/svg11.dtd"><svg t="1671611416138" class="icon" viewBox="0 0 1024 1024" version="1.1" xmlns="http://www.w3.org/2000/svg" p-id="3861" width="48" height="48" xmlns:xlink="http://www.w3.org/1999/xlink"><path d="M434.631553 1007.304348m-16.695652 0a16.695652 16.695652 0 1 0 33.391304 0 16.695652 16.695652 0 1 0-33.391304 0Z" fill="#eeb173" p-id="3862"></path><path d="M908.15205 175.86087L737.220373 4.929193a15.900621 15.900621 0 0 0-10.335404-4.929193H177.995528A67.100621 67.100621 0 0 0 110.894907 67.100621v890.434783a67.100621 67.100621 0 0 0 67.100621 66.464596h189.058385a15.900621 15.900621 0 0 0 0-33.391304H177.995528a33.709317 33.709317 0 0 1-33.709317-33.709317v-890.434783A33.709317 33.709317 0 0 1 177.995528 33.391304h540.621118l138.335404 138.176398h-115.279503V102.240994a15.900621 15.900621 0 1 0-33.232299 0v86.02236a15.900621 15.900621 0 0 0 15.900622 16.695652H896.38559a15.900621 15.900621 0 0 0 16.695652-16.695652 15.900621 15.900621 0 0 0-4.929192-12.402484zM913.081242 271.741615a15.900621 15.900621 0 0 0-33.232298 0v685.157764a33.709317 33.709317 0 0 1-33.709317 33.709317h-345.043478a16.695652 16.695652 0 0 0 0 33.391304h344.884472a67.100621 67.100621 0 0 0 67.100621-67.100621V271.741615z" fill="#eeb173" p-id="3863"></path><path d="M414.437764 636.978882a154.395031 154.395031 0 0 1-67.418634 12.720497 114.007453 114.007453 0 0 1-85.068323-31.801242 116.869565 116.869565 0 0 1-31.801242-85.386336 125.614907 125.614907 0 0 1 34.981367-91.90559 121.639752 121.639752 0 0 1 90.63354-35.617391 162.345342 162.345342 0 0 1 58.196273 8.904348v48.814907a105.898137 105.898137 0 0 0-54.53913-13.992547 72.506832 72.506832 0 0 0-55.493168 22.101863 81.570186 81.570186 0 0 0-20.670807 58.037267 79.503106 79.503106 0 0 0 19.71677 56.129193 68.849689 68.849689 0 0 0 53.267081 21.147826 111.304348 111.304348 0 0 0 57.719254-15.900621zM444.80795 585.778882a98.742857 98.742857 0 0 0 65.033541 23.850932 54.53913 54.53913 0 0 0 31.006211-7.15528 21.306832 21.306832 0 0 0 10.49441-18.285714 26.395031 26.395031 0 0 0-8.268323-18.285714 157.893168 157.893168 0 0 0-43.567702-23.214907c-37.048447-15.900621-55.652174-38.479503-55.652174-68.531677a59.468323 59.468323 0 0 1 25.281988-51.2 110.032298 110.032298 0 0 1 66.464596-18.285715 163.776398 163.776398 0 0 1 58.355279 8.904348v47.701864a96.834783 96.834783 0 0 0-55.81118-15.900621 58.196273 58.196273 0 0 0-29.734161 6.201242 20.98882 20.98882 0 0 0-11.130435 18.285714 23.850932 23.850932 0 0 0 7.632298 17.013665 143.10559 143.10559 0 0 0 37.843478 20.829813 121.321739 121.321739 0 0 1 47.701864 31.801243 62.012422 62.012422 0 0 1 13.197515 40.069565 60.42236 60.42236 0 0 1-24.168944 51.995031 113.371429 113.371429 0 0 1-68.531677 17.967702A148.034783 148.034783 0 0 1 444.80795 636.024845zM633.866335 585.778882a98.742857 98.742857 0 0 0 65.351553 23.850932 54.53913 54.53913 0 0 0 31.801242-7.15528 21.306832 21.306832 0 0 0 10.49441-18.285714 26.395031 26.395031 0 0 0-8.268323-18.285714 157.893168 157.893168 0 0 0-43.567701-23.214907c-37.048447-15.900621-55.652174-38.479503-55.652174-68.531677a59.468323 59.468323 0 0 1 25.281987-51.2 110.191304 110.191304 0 0 1 66.623603-18.285715 163.458385 163.458385 0 0 1 58.196273 8.904348v47.701864a96.834783 96.834783 0 0 0-55.81118-15.900621 58.196273 58.196273 0 0 0-29.893168 6.67826 20.98882 20.98882 0 0 0-11.130435 18.285715 23.850932 23.850932 0 0 0 7.632298 17.013664A145.808696 145.808696 0 0 0 731.01913 507.706832a121.321739 121.321739 0 0 1 48.496895 31.801243 62.012422 62.012422 0 0 1 13.197515 40.069565 60.740373 60.740373 0 0 1-24.009938 51.995031 114.325466 114.325466 0 0 1-68.690683 17.967702 148.034783 148.034783 0 0 1-66.782608-13.197516z" fill="#eeb173" p-id="3864"></path></svg>