<?xml version="1.0" standalone="no"?><!DOCTYPE svg PUBLIC "-//W3C//DTD SVG 1.1//EN" "http://www.w3.org/Graphics/SVG/1.1/DTD/svg11.dtd"><svg t="1671674035112" class="icon" viewBox="0 0 1024 1024" version="1.1" xmlns="http://www.w3.org/2000/svg" p-id="2144" width="48" height="48" xmlns:xlink="http://www.w3.org/1999/xlink"><path d="M477.908446 324.371114H307.325337a17.045777 17.045777 0 1 1 0-34.091555h170.583109a17.045777 17.045777 0 0 1 0 34.091555zM375.508446 392.554223h-68.183109a17.045777 17.045777 0 0 1 0-34.091555h68.183109a17.045777 17.045777 0 0 1 0 34.091555zM716.674663 529.045777H307.325337a17.045777 17.045777 0 0 1 0-34.091554h409.349326a17.045777 17.045777 0 0 1 0 34.091554zM716.674663 597.228886H307.325337a17.045777 17.045777 0 0 1 0-34.091554h409.349326a17.045777 17.045777 0 0 1 0 34.091554zM716.674663 665.537332H307.325337a17.171114 17.171114 0 0 1 0-34.216891h409.349326a17.171114 17.171114 0 0 1 0 34.216891zM443.816891 733.720441H307.325337a17.045777 17.045777 0 1 1 0-34.091555h136.491554a17.045777 17.045777 0 1 1 0 34.091555z" p-id="2145" fill="#707070"></path><path d="M708.402448 205.050673m0-16.669767l0 0q0-16.669767 16.669767-16.669768l171.335129 0q16.669767 0 16.669767 16.669768l0 0q0 16.669767-16.669767 16.669767l-171.335129 0q-16.669767 0-16.669767-16.669767Z" p-id="2146" fill="#707070"></path><path d="M741.616646 204.925337m-16.669767 0l0 0q-16.669767 0-16.669768-16.669768l0-86.106242q0-16.669767 16.669768-16.669768l0 0q16.669767 0 16.669767 16.669768l0 86.106242q0 16.669767-16.669767 16.669768Z" p-id="2147" fill="#707070"></path><path d="M920.002394 187.558548m-11.787306 11.787305l0 0q-11.787306 11.787306-23.574611 0l-170.960244-170.960244q-11.787306-11.787306 0-23.574611l0 0q11.787306-11.787306 23.574611 0l170.960244 170.960244q11.787306 11.787306 0 23.574611Z" p-id="2148" fill="#707070"></path><path d="M434.667319 1007.330233m-16.669767 0a16.669767 16.669767 0 1 0 33.339535 0 16.669767 16.669767 0 1 0-33.339535 0Z" p-id="2149" fill="#707070"></path><path d="M366.985557 990.159119H177.977968a33.840881 33.840881 0 0 1-33.715544-33.840882v-889.88984a33.840881 33.840881 0 0 1 33.715544-33.088862h548.974296V0H177.977968A67.180416 67.180416 0 0 0 110.922889 67.05508v889.88984a67.180416 67.180416 0 0 0 67.055079 67.05508h189.007589a16.669767 16.669767 0 1 0 0-33.339535zM913.077111 271.604406a16.669767 16.669767 0 0 0-33.339535 0v685.215178A33.840881 33.840881 0 0 1 846.022032 990.159119H501.221053a16.669767 16.669767 0 1 0 0 33.339535h344.800979A67.180416 67.180416 0 0 0 913.077111 956.819584V271.604406z" p-id="2150" fill="#707070"></path></svg>