<?xml version="1.0" standalone="no"?><!DOCTYPE svg PUBLIC "-//W3C//DTD SVG 1.1//EN" "http://www.w3.org/Graphics/SVG/1.1/DTD/svg11.dtd"><svg t="1671611375181" class="icon" viewBox="0 0 1024 1024" version="1.1" xmlns="http://www.w3.org/2000/svg" p-id="3527" width="48" height="48" xmlns:xlink="http://www.w3.org/1999/xlink"><path d="M434.631553 1007.304348m-16.695652 0a16.695652 16.695652 0 1 0 33.391304 0 16.695652 16.695652 0 1 0-33.391304 0Z" fill="#e8989a" p-id="3528"></path><path d="M908.15205 175.86087L737.220373 4.929193a15.900621 15.900621 0 0 0-10.335404-4.929193H177.995528A67.100621 67.100621 0 0 0 110.894907 67.100621v890.434783a67.100621 67.100621 0 0 0 67.100621 66.464596h189.058385a15.900621 15.900621 0 0 0 0-33.391304H177.995528a33.709317 33.709317 0 0 1-33.709317-33.709317v-890.434783A33.709317 33.709317 0 0 1 177.995528 33.391304h540.621118l138.335404 138.176398h-115.279503V102.240994a15.900621 15.900621 0 1 0-33.232299 0v86.02236a15.900621 15.900621 0 0 0 15.900622 16.695652H896.38559a15.900621 15.900621 0 0 0 16.695652-16.695652 15.900621 15.900621 0 0 0-4.929192-12.402484zM913.081242 271.741615a15.900621 15.900621 0 0 0-33.232298 0v685.157764a33.709317 33.709317 0 0 1-33.709317 33.709317h-345.043478a16.695652 16.695652 0 0 0 0 33.391304h344.884472a67.100621 67.100621 0 0 0 67.100621-67.100621V271.741615z" fill="#e8989a" p-id="3529"></path><path d="M328.892422 611.219876h-37.843478v-73.301864H215.361988v73.301864H177.518509V433.609938h37.843479v71.711801h75.686956v-71.711801h37.843478zM492.509814 464.616149h-50.086957v146.603727h-38.002484v-146.603727h-50.563975v-31.006211H492.509814zM679.978137 611.219876v-107.806211c0-9.858385 0-22.419876 1.590062-37.525466h-0.954038a169.341615 169.341615 0 0 1-5.565217 22.896894l-43.726708 122.434783h-30.21118L556.112298 489.898137a194.146584 194.146584 0 0 1-5.565217-24.009938h-1.113044q1.431056 22.419876 1.431056 44.839751v100.491926h-33.55031V433.609938H572.012919L610.810435 540.621118a129.113043 129.113043 0 0 1 6.519254 24.963975 250.11677 250.11677 0 0 1 8.109317-24.963975l38.479503-107.170186h53.585093v177.768944zM863.312298 611.219876h-104.308074V433.609938h37.843478v146.762733h66.464596z" fill="#e8989a" p-id="3530"></path></svg>