<?xml version="1.0" standalone="no"?><!DOCTYPE svg PUBLIC "-//W3C//DTD SVG 1.1//EN" "http://www.w3.org/Graphics/SVG/1.1/DTD/svg11.dtd"><svg t="1671611445533" class="icon" viewBox="0 0 1024 1024" version="1.1" xmlns="http://www.w3.org/2000/svg" p-id="4107" width="48" height="48" xmlns:xlink="http://www.w3.org/1999/xlink"><path d="M502.474419 338.910159m-19.051163 0a19.051163 19.051163 0 1 0 38.102325 0 19.051163 19.051163 0 1 0-38.102325 0Z" p-id="4108" fill="#8992c8"></path><path d="M400.951775 345.176989v-50.761322a12.53366 12.53366 0 0 1 12.53366-12.53366 12.53366 12.53366 0 0 0 0-25.067319 38.227662 38.227662 0 0 0-37.60098 37.600979v50.761322a25.067319 25.067319 0 0 1-25.067319 25.067319 12.53366 12.53366 0 0 0 0 25.06732 25.067319 25.067319 0 0 1 25.067319 25.067319v50.761322a38.227662 38.227662 0 0 0 37.60098 37.600979 12.53366 12.53366 0 0 0 0-25.067319 12.53366 12.53366 0 0 1-12.53366-12.53366v-49.758629a50.134639 50.134639 0 0 0-17.547124-37.600979 50.134639 50.134639 0 0 0 17.547124-38.603672zM623.048225 345.176989v-50.761322a12.53366 12.53366 0 0 0-12.53366-12.53366 12.53366 12.53366 0 0 1 0-25.067319 38.227662 38.227662 0 0 1 37.60098 37.600979v50.761322a25.067319 25.067319 0 0 0 25.067319 25.067319 12.53366 12.53366 0 1 1 0 25.06732 25.067319 25.067319 0 0 0-25.067319 25.067319v50.761322a38.227662 38.227662 0 0 1-37.60098 37.600979 12.53366 12.53366 0 0 1 0-25.067319 12.53366 12.53366 0 0 0 12.53366-12.53366v-49.758629a50.134639 50.134639 0 0 1 17.547124-37.600979 50.134639 50.134639 0 0 1-17.547124-38.603672zM502.474419 408.722644a12.53366 12.53366 0 0 0-12.53366 12.53366v37.600979a12.53366 12.53366 0 0 0 25.067319 0v-37.600979a12.53366 12.53366 0 0 0-12.533659-12.53366z" p-id="4109" fill="#8992c8"></path><path d="M708.402448 205.050673m0-16.669767l0 0q0-16.669767 16.669767-16.669768l171.335129 0q16.669767 0 16.669767 16.669768l0 0q0 16.669767-16.669767 16.669767l-171.335129 0q-16.669767 0-16.669767-16.669767Z" p-id="4110" fill="#8992c8"></path><path d="M741.616646 204.925337m-16.669767 0l0 0q-16.669767 0-16.669768-16.669768l0-86.106242q0-16.669767 16.669768-16.669768l0 0q16.669767 0 16.669767 16.669768l0 86.106242q0 16.669767-16.669767 16.669768Z" p-id="4111" fill="#8992c8"></path><path d="M920.002394 187.558548m-11.787306 11.787305l0 0q-11.787306 11.787306-23.574611 0l-170.960244-170.960244q-11.787306-11.787306 0-23.574611l0 0q11.787306-11.787306 23.574611 0l170.960244 170.960244q11.787306 11.787306 0 23.574611Z" p-id="4112" fill="#8992c8"></path><path d="M434.667319 1007.330233m-16.669767 0a16.669767 16.669767 0 1 0 33.339535 0 16.669767 16.669767 0 1 0-33.339535 0Z" p-id="4113" fill="#8992c8"></path><path d="M366.985557 990.159119H177.977968a33.840881 33.840881 0 0 1-33.715544-33.840882v-889.88984a33.840881 33.840881 0 0 1 33.715544-33.088862h548.974296V0H177.977968A67.180416 67.180416 0 0 0 110.922889 67.05508v889.88984a67.180416 67.180416 0 0 0 67.055079 67.05508h189.007589a16.669767 16.669767 0 1 0 0-33.339535zM913.077111 271.604406a16.669767 16.669767 0 0 0-33.339535 0v685.215178A33.840881 33.840881 0 0 1 846.022032 990.159119H501.221053a16.669767 16.669767 0 1 0 0 33.339535h344.800979A67.180416 67.180416 0 0 0 913.077111 956.819584V271.604406z" p-id="4114" fill="#8992c8"></path><path d="M478.409792 596.602203v100.269278a186.124847 186.124847 0 0 1-1.128029 22.184578 69.812485 69.812485 0 0 1-5.013464 18.42448 50.134639 50.134639 0 0 1-21.432558 25.067319 70.815177 70.815177 0 0 1-36.47295 8.773562 75.201958 75.201958 0 0 1-32.462179-6.768176A47.50257 47.50257 0 0 1 361.596083 744.750061a64.548348 64.548348 0 0 1-6.768176-16.92044 66.929743 66.929743 0 0 1-2.632069-18.04847 17.045777 17.045777 0 0 1 18.04847-18.80049 14.664382 14.664382 0 0 1 11.656304 4.512117 31.459486 31.459486 0 0 1 6.016157 13.787026 111.800245 111.800245 0 0 0 4.386781 16.043085 23.813953 23.813953 0 0 0 7.394859 10.277601 22.811261 22.811261 0 0 0 14.915055 4.261444q25.067319 0 25.067319-37.600979V596.602203a26.195349 26.195349 0 0 1 5.138801-17.547123 17.923133 17.923133 0 0 1 14.037699-5.890821 18.299143 18.299143 0 0 1 14.288372 5.890821 25.067319 25.067319 0 0 1 5.264137 17.547123zM665.411995 710.031824a56.276132 56.276132 0 0 1-8.898898 31.083476 59.910894 59.910894 0 0 1-26.070013 21.683231 97.386536 97.386536 0 0 1-40.85973 7.770869 91.621053 91.621053 0 0 1-46.625214-10.653611A62.668299 62.668299 0 0 1 521.776255 739.485924a46.374541 46.374541 0 0 1-8.021543-25.067319 16.669767 16.669767 0 0 1 17.296451-17.045778 14.915055 14.915055 0 0 1 10.277601 3.885435 30.456793 30.456793 0 0 1 7.269522 11.656303 75.201958 75.201958 0 0 0 7.896206 15.291065 31.584823 31.584823 0 0 0 12.53366 10.026928 44.369155 44.369155 0 0 0 20.179192 4.010771 46.123868 46.123868 0 0 0 27.950061-8.021542A24.3153 24.3153 0 0 0 627.30967 714.418605a21.307222 21.307222 0 0 0-5.890821-15.416402 37.600979 37.600979 0 0 0-14.915055-9.650918 254.182619 254.182619 0 0 0-25.067319-6.642839 188.004896 188.004896 0 0 1-34.467564-11.280294 54.772093 54.772093 0 0 1-21.933905-17.547124 45.121175 45.121175 0 0 1-7.645532-27.198041 47.001224 47.001224 0 0 1 8.522888-27.950062 53.7694 53.7694 0 0 1 25.06732-18.925826 101.271971 101.271971 0 0 1 37.600979-6.517503 95.255814 95.255814 0 0 1 30.456793 4.386781 65.049694 65.049694 0 0 1 21.307222 11.530967 47.87858 47.87858 0 0 1 12.533659 15.165728 35.34492 35.34492 0 0 1 4.010771 15.541738 18.04847 18.04847 0 0 1-4.888127 12.53366 15.541738 15.541738 0 0 1-12.53366 5.51481 13.661689 13.661689 0 0 1-10.026927-3.258751 50.134639 50.134639 0 0 1-7.520196-10.904284 50.134639 50.134639 0 0 0-12.53366-16.795104 35.72093 35.72093 0 0 0-23.437944-6.141494 40.233048 40.233048 0 0 0-24.064626 6.64284 19.176499 19.176499 0 0 0-9.274908 15.792411 16.669767 16.669767 0 0 0 3.133414 9.901592 27.448715 27.448715 0 0 0 8.648226 7.144186 56.401469 56.401469 0 0 0 11.02962 4.76279c3.760098 1.128029 9.901591 2.757405 18.549817 4.888128a298.050428 298.050428 0 0 1 29.203427 8.272215 90.367687 90.367687 0 0 1 22.309914 11.154957 43.993146 43.993146 0 0 1 14.288372 16.419094 53.39339 53.39339 0 0 1 5.640147 24.189964z" p-id="4115" fill="#8992c8"></path></svg>