<?xml version="1.0" standalone="no"?><!DOCTYPE svg PUBLIC "-//W3C//DTD SVG 1.1//EN" "http://www.w3.org/Graphics/SVG/1.1/DTD/svg11.dtd"><svg t="1673254667109" class="icon" viewBox="0 0 1024 1024" version="1.1" xmlns="http://www.w3.org/2000/svg" p-id="949" width="64" height="64" xmlns:xlink="http://www.w3.org/1999/xlink"><path d="M344.1664 235.1872c31.744 0 61.3888 12.16 83.712 33.9968l4.608 4.736 0.256-0.256a119.168 119.168 0 0 1 75.4944-37.8368l6.2208-0.4864 6.3232-0.1536h154.624c28.5952 0 52.1216 22.4256 54.0928 50.688l0.1536 3.8912 2.9696 199.424-50.9952-14.8992-2.816-177.0752a11.4688 11.4688 0 0 0-9.1392-11.0592l-1.9456-0.1792h-141.952c-32.9728 0-65.1776 26.0352-67.6864 56.8832l-0.1536 3.8656v386.6112l3.4048-1.5616 2.4064-1.3312 2.3296-1.408 4.5568-3.1744a5.4272 5.4272 0 0 1 7.936 1.28 6.912 6.912 0 0 1 1.1264 3.7376c0.1024 1.5104-0.0512 3.5584-0.4096 6.1696l-1.024 6.3232c-0.6144 3.4816-1.4336 7.424-2.3808 11.52l-2.1504 9.0368c-3.4304 13.696-6.272 20.7104-10.368 21.76a123.648 123.648 0 0 1-112.9984-26.3936l-3.2-2.9184H188.9024a54.4512 54.4512 0 0 1-53.6832-46.7456l-0.4352-3.9936-0.128-3.8912v-411.904c0-28.8256 22.272-52.5056 50.3808-54.528l3.8656-0.128h155.264z m-5.632 50.4576H196.5568a11.392 11.392 0 0 0-10.9056 9.2672l-0.1792 1.9968v395.4176c0 5.376 4.0704 10.0864 9.1392 11.0592l1.9456 0.2048h160.3584c8.5504 0 16.8704 3.4304 22.8864 9.3184l2.432 2.6624c5.9392 6.9632 13.0816 12.5696 20.992 16.5632l3.1232 1.408V346.4192c0-31.232-30.848-58.496-63.6928-60.6464l-4.1216-0.128z" fill="#ED892D" p-id="950"></path><path d="M331.3408 502.4256h-80.64a20.1728 20.1728 0 0 1 0-40.32h80.64a20.1472 20.1472 0 1 1 0 40.32z m0-100.8128h-80.64a20.1728 20.1728 0 0 1 0-40.32h80.64a20.1472 20.1472 0 1 1 0 40.32z m-80.64 161.3056h80.64a20.1472 20.1472 0 1 1 0 40.3456h-80.64a20.1472 20.1472 0 1 1 0-40.3456zM613.632 401.6128H512.768a20.1728 20.1728 0 0 1 0-40.32h100.8384a20.1472 20.1472 0 1 1 0 40.32z" fill="#F5C280" p-id="951"></path><path d="M645.4784 482.9696a112.256 112.256 0 0 1 74.0864 196.5824l1.024-0.9984 3.072 1.792a164.5824 164.5824 0 0 1 48.6912 44.1088l4.7616 6.8096 1.8688 2.9696 54.016-77.312a25.1904 25.1904 0 0 1 29.5424-9.1392l2.8928 1.28 2.6368 1.5872c11.264 7.8848 14.1312 23.3472 6.4 34.8416l-73.3184 104.9856 0.3328 1.6896c0.8704 4.7872 1.536 9.6256 1.9456 14.5152l0.512 7.424 0.1536 7.2448a25.1904 25.1904 0 0 1-50.3808 0.384l-0.1024-5.4272a113.4336 113.4336 0 0 0-226.7648 3.072v1.9712a25.1904 25.1904 0 0 1-50.3808 0 163.84 163.84 0 0 1 89.6256-146.0736l0.4864-0.2304-3.3536-3.4304a112 112 0 0 1-29.3376-64.2816l-0.512-6.0672-0.1536-6.0416a112.256 112.256 0 0 1 112.256-112.256z m0 39.04a73.216 73.216 0 1 0 0 146.432 73.216 73.216 0 0 0 0-146.432z m211.84 36.2496a20.0704 20.0704 0 0 1 0.2304 40.1408h-52.224a20.0704 20.0704 0 0 1-0.2304-40.1152z" fill="#BE4BDB" p-id="952"></path><path d="M857.3184 497.2032h-88.6016a20.096 20.096 0 0 0 0.2304 40.1152h88.576a20.096 20.096 0 0 0-0.2048-40.1152z" fill="#B152D4" p-id="953"></path></svg>